<?xml version="1.0" encoding="UTF-8" standalone="no"?>
<!-- Created with Inkscape (http://www.inkscape.org/) -->

<svg
   xmlns:dc="http://purl.org/dc/elements/1.1/"
   xmlns:cc="http://creativecommons.org/ns#"
   xmlns:rdf="http://www.w3.org/1999/02/22-rdf-syntax-ns#"
   xmlns:svg="http://www.w3.org/2000/svg"
   xmlns="http://www.w3.org/2000/svg"
   version="1.1"
   width="234.05707"
   height="117.007"
   id="svg2983">
  <defs
     id="defs2985" />
  <metadata
     id="metadata2988">
    <rdf:RDF>
      <cc:Work
         rdf:about="">
        <dc:format>image/svg+xml</dc:format>
        <dc:type
           rdf:resource="http://purl.org/dc/dcmitype/StillImage" />
        <dc:title></dc:title>
      </cc:Work>
    </rdf:RDF>
  </metadata>
  <g
     transform="translate(-257.97146,-473.85868)"
     id="layer1">
    <g
       transform="translate(242.49946,463.65668)"
       id="g2964">
      <path
         d="m 18.253,113.771 0,3.979 7.592,0 0,2.455 -7.592,0 0,6.814 -2.781,0 0,-15.723 10.588,0 0,2.475 L 18.253,113.771 z m 10.872,13.249 0,-15.723 10.82,0 0,2.475 -8.09,0 0,3.979 7.852,0 0,2.455 -7.852,0 0,4.316 8.09,0 0,2.498 L 29.125,127.02 z m 19.871,0.189 c -3.793,0 -6.316,-0.943 -6.316,-4.574 l 2.779,0 c 0,1.578 0.754,2.076 3.586,2.076 3.041,0 3.537,-0.754 3.537,-2.473 0,-1.535 -0.59,-1.746 -1.771,-1.844 -3.461,-0.256 -8.131,0.707 -8.131,-4.48 0,-3.658 2.123,-4.779 6.27,-4.779 3.797,0 6.248,0.961 6.248,4.568 l -2.732,0 c 0,-1.859 -1.18,-2.072 -3.557,-2.072 -3.141,0 -3.449,0.592 -3.449,2.232 0,1.471 0.66,1.654 1.773,1.748 3.463,0.285 8.152,-0.727 8.127,4.504 C 55.337,125.654 53.259,127.209 48.996,127.209 z m 15.252,-13.438 0,13.248 -2.778,0 0,-13.248 -4.789,0 0,-2.475 12.354,0 0,2.475 L 64.248,113.771 z m 7.005,13.249 0,-15.723 2.781,0 0,15.723 L 71.253,127.02 z m 13.252,0 -2.74,0 -5.867,-15.723 2.967,0 4.32,12.203 4.311,-12.203 2.926,0 L 84.505,127.02 z m 16.825,0 -1.461,-4.008 -6.129,0 -1.438,4.008 -2.898,0 6.084,-15.723 2.85,0 6.033,15.723 L 101.33,127.02 z m -4.502,-12.631 -2.215,6.215 4.402,0 L 96.828,114.389 z m 9.525,12.631 0,-15.723 2.779,0 0,13.225 7.805,0 0,2.498 L 106.353,127.02 z m 29.418,-2.122 c -1.127,1.672 -2.828,2.121 -5.75,2.121 l -5.846,0 0,-15.723 5.825,0 c 2.922,0 4.619,0.471 5.752,2.143 0.827,1.229 1.036,2.645 1.036,5.729 C 136.787,122.26 136.602,123.674 135.771,124.898 z m -5.912,-11.127 -2.947,0 0,10.75 2.971,0 c 3.156,0 4.121,-0.166 4.121,-5.354 C 134.003,113.982 133.015,113.771 129.859,113.771 z m 10.233,13.249 0,-15.723 10.818,0 0,2.475 -8.088,0 0,3.979 7.85,0 0,2.455 -7.85,0 0,4.316 8.088,0 0,2.498 L 140.092,127.02 z m 28.853,-11.317 c 0,-1.582 -0.66,-2.049 -3.369,-2.049 -3.158,0 -3.654,1.014 -3.654,5.514 0,4.506 0.475,5.494 3.631,5.494 2.707,0 3.367,-0.449 3.367,-2.027 l 2.738,0 c 0,3.557 -2.311,4.574 -5.895,4.574 -6.58,0 -6.625,-3.559 -6.625,-8.068 0,-4.496 0.07,-8.006 6.646,-8.006 3.58,0 5.898,1.01 5.898,4.568 L 168.945,115.703 z m 15.844,11.317 -1.463,-4.008 -6.129,0 -1.441,4.008 -2.898,0 6.082,-15.723 2.85,0 6.039,15.723 L 184.789,127.02 z m -4.508,-12.631 -2.213,6.215 4.41,0 L 180.281,114.389 z m 18.647,12.631 -6.525,-11.295 0,11.295 -2.592,0 0,-15.723 2.828,0 6.557,11.199 0,-11.199 2.592,0 0,15.723 L 198.928,127.02 z m 16.742,0 -6.527,-11.295 0,11.295 -2.594,0 0,-15.723 2.828,0 6.557,11.199 0,-11.199 2.588,0 0,15.723 L 215.67,127.02 z m 7.617,0 0,-15.723 10.82,0 0,2.475 -8.084,0 0,3.979 7.85,0 0,2.455 -7.85,0 0,4.316 8.084,0 0,2.498 L 223.287,127.02 z m 19.877,0.189 c -3.797,0 -6.32,-0.943 -6.32,-4.574 l 2.779,0 c 0,1.578 0.758,2.076 3.586,2.076 3.039,0 3.535,-0.754 3.535,-2.473 0,-1.535 -0.59,-1.746 -1.771,-1.844 -3.461,-0.256 -8.129,0.707 -8.129,-4.48 0,-3.658 2.121,-4.779 6.27,-4.779 3.801,0 6.246,0.961 6.246,4.568 l -2.732,0 c 0,-1.859 -1.178,-2.072 -3.561,-2.072 -3.137,0 -3.443,0.592 -3.443,2.232 0,1.471 0.66,1.654 1.768,1.748 3.465,0.285 8.158,-0.727 8.137,4.504 C 249.504,125.654 247.432,127.209 243.164,127.209 Z"
         id="path237" />
      <path
         d="m 132.505,10.202 c -44.309,0 -79.904,19.711 -79.904,43.59 0,23.877 35.241,43.588 79.904,43.588 44.401,0 79.893,-19.711 79.893,-43.588 C 212.398,29.913 176.73,10.202 132.505,10.202 z m -0.084,84.91 c -40.76,0 -75.643,-18.875 -75.643,-41.344 0,-22.466 35.682,-41.749 75.643,-41.749 40.667,0 75.596,19.283 75.596,41.749 C 208.018,76.237 172.911,95.112 132.421,95.112 Z"
         id="path241" />
      <path
         d="m 192.748,48.364 c -2.458,0.501 -4.742,1.286 -7.083,1.984 -1.506,0.451 -3.037,0.865 -4.658,1.141 l -0.662,-0.009 0.29,-0.437 c 0.226,-0.234 0.454,-0.467 0.688,-0.695 2.338,-2.295 4.989,-4.274 7.435,-6.498 0.767,-0.896 2.45,-1.58 1.905,-3.209 -0.498,-0.26 -1.847,0.283 -2.491,0.57 -4.756,2.456 -9.134,5.215 -13.155,9.052 -0.118,0.112 -0.234,0.224 -0.353,0.337 -2.281,1.725 -2.702,5.717 -6.119,5.486 -2.167,-0.2 -2.48,-0.179 -3.313,-0.473 3.486,-2.69 10.191,-11.586 10.789,-13.712 0,0 0.602,-1.925 -0.229,-1.86 -3.195,1.164 -6.21,3.869 -8.7,6.061 0.231,-1.08 1.982,-3.143 1.13,-4.385 -5.532,1.165 -13.334,8.568 -13.372,8.593 -1.482,0.983 -2.03,4.145 -4.337,3.675 -1.443,-0.199 -3.182,-0.217 -4.032,-0.705 1.485,-0.884 2.905,-1.873 4.281,-2.932 3.195,-2.453 6.163,-5.273 9.186,-7.988 0.173,-0.396 1.17,-0.791 0.603,-1.391 -0.964,-0.771 -2.094,0.367 -3.142,0.551 -4.791,2.1 -8.028,4.926 -11.19,8.828 -0.591,0.729 -1.472,1.67 -1.999,2.51 -2.258,-0.266 -3.463,-0.146 -4.568,-0.861 0.675,-0.558 1.359,-1.104 2.046,-1.648 3.686,-2.92 7.445,-5.799 10.258,-10.13 -0.283,-1.47 -1.762,-0.292 -2.473,-0.011 -5.03,2.483 -9.164,5.546 -12.331,10.397 -0.196,0.299 -0.385,0.606 -0.567,0.925 -2.215,-0.059 -4.129,-0.492 -6.042,-0.93 -0.041,-0.01 -0.081,-0.019 -0.122,-0.027 l 0.017,-0.205 c 4.822,-2.465 9.119,-6.698 12.443,-11.7 0,0 2.759,-4.841 -3.294,-0.839 -4.517,2.904 -8.632,6.738 -11.516,12.191 0,0 -3.038,0.115 -3.038,-0.217 2.926,-3.592 6.32,-8.227 8.04,-12.957 0.163,-0.737 0.613,-2.283 -0.473,-2.447 -4.067,1.707 -6.755,6.49 -8.935,10.974 -0.666,1.316 -1.029,2.978 -1.62,4.232 -2.723,-0.134 -4.603,0.104 -7.215,-0.675 3.274,-2.875 6.852,-5.243 9.834,-8.695 0.505,-0.939 3.857,-3.236 3.773,-6.199 -1.044,-0.641 -2.094,0.115 -2.731,0.585 l -9.188,7.322 -0.482,0.025 c 1.465,-2.62 4.662,-6.455 5.975,-9.163 0.441,-0.908 0.988,-1.733 0.947,-2.838 l -0.811,-0.263 c -6.643,2.855 -12.367,9.367 -14.614,17.763 -0.55,0.777 -0.817,2.266 -1.948,1.822 -0.142,-2.28 -0.852,-4.404 -1.633,-6.467 -2.848,-5.955 -6.935,-10.299 -12.16,-13.438 -0.852,-0.486 -1.344,0.434 -1.063,1.145 0.733,4.189 3.322,6.821 5.105,10.002 2.12,3.279 4.997,6.244 7.42,9.205 -0.827,0.283 -19.721,4.781 -23.08,7.502 -1.764,0.971 -4.586,3.227 -4.542,8.168 0.148,1.456 1.166,2.888 2.458,3.32 1.222,0.176 2.084,0.283 2.888,-0.267 3.482,-4.437 7.519,-8.497 12.018,-11.197 3.087,-1.616 5.354,-3.2 8.899,-3.646 1.461,1.363 2.408,3.157 4.403,4.809 3.931,3.578 7.381,6.008 12.802,6.895 l 0.54,-0.18 -0.198,-0.498 c -2.865,-4.17 -7.249,-6.801 -11.732,-8.98 -0.768,-0.58 -2.626,-1.561 -2.729,-2.739 2.763,-0.927 6.44,-1.194 9.761,-0.397 3.965,6.889 8.338,14.449 14.696,18.786 0.474,0.11 0.805,-0.549 0.567,-0.98 -4.408,-10.733 -7.225,-11.701 -11.743,-16.632 -0.243,-0.365 -0.581,-1.221 0.063,-1.506 l 4.221,0.066 c 1.358,0.188 3.217,-0.199 3.548,0.398 0.204,7.098 4.774,12.523 7.533,17.922 0,0 0.886,0.51 0.838,-0.417 l 0.029,-0.06 c -1.129,-12.499 -5.811,-15.377 -6.519,-17.501 0.721,-0.05 1.512,-0.005 2.102,0.32 2.972,6.047 7.006,10.612 12.32,14.036 0.116,0.075 0.778,0.157 0.348,-0.807 -1.545,-5.193 -6.317,-7.854 -9.413,-11.768 l -0.542,-1.011 0.626,-0.083 c 1.326,0.264 3.119,0.563 4.093,1.197 1.766,3.387 4.149,6 6.689,8.422 2.102,1.902 3.899,4.123 7.076,4.744 l 0.336,-0.049 0.101,-0.273 -0.098,-0.403 c -1.966,-5.142 -7.266,-7.306 -11.006,-10.931 -0.254,-0.229 -0.723,-1.164 -0.022,-1.31 l 6.025,0.875 c 9.063,12.101 12.569,11.618 12.569,11.618 0,0 2.719,0.631 1.475,-1.361 -2.955,-3.07 -5.531,-4.48 -9.063,-7.28 -0.635,-0.606 -2.223,-1.676 -2.059,-2.762 1.294,0.2 1.511,0.183 4.149,0.481 0.831,0.119 1.953,0.264 2.59,0.549 4.732,2.111 5.146,8.732 16.633,10.124 0.409,0.036 0.497,-0.514 0.213,-0.874 -3.281,-2.555 -11.838,-8.293 -12.363,-8.951 1.095,0.099 5.696,0.756 6.422,1.095 5.778,3.118 9.313,5.444 17.579,4.351 0.71,-1.039 -0.442,-1.459 -1.419,-1.844 l -4.655,-1.811 c -0.603,-0.189 -3.188,-0.696 -4.116,-0.995 4.947,-1.56 11.473,-3.362 15.828,-6.005 0.69,-0.541 1.507,-0.955 2.182,-1.551 0.457,-0.403 0.845,-0.898 1.084,-1.566 C 193.891,48.046 192.748,48.364 192.748,48.364 z m -83.172,0.864 c -0.521,-0.32 -0.107,-0.955 0.053,-1.217 0.155,-0.192 1.93,-3.385 3.499,-2.564 C 113.406,46.237 110.687,49.405 109.576,49.228 z m 54.502,1.13 c -0.871,1.43 -0.246,3.473 -1.386,4.807 l -7.719,-0.994 c 4.481,-1.596 8.122,-4.656 10.274,-5.902 L 164.078,50.358 z m 8.327,5.948 c -0.064,-0.832 0.895,-1.571 1.493,-2.137 2.596,-2.125 2.986,-0.059 2.986,-0.059 C 175.703,55.04 174.03,56.136 172.405,56.306 Z"
         id="path243" />
    </g>
  </g>
</svg>
