<?xml version="1.0" encoding="UTF-8" standalone="no"?>
<!-- Created with Inkscape (http://www.inkscape.org/) -->

<svg
   xmlns:dc="http://purl.org/dc/elements/1.1/"
   xmlns:cc="http://creativecommons.org/ns#"
   xmlns:rdf="http://www.w3.org/1999/02/22-rdf-syntax-ns#"
   xmlns:svg="http://www.w3.org/2000/svg"
   xmlns="http://www.w3.org/2000/svg"
   version="1.1"
   width="300"
   height="278.83286"
   viewBox="0 0 300 278.83286"
   id="svg13677">
  <defs
     id="defs13679" />
  <metadata
     id="metadata13682">
    <rdf:RDF>
      <cc:Work
         rdf:about="">
        <dc:format>image/svg+xml</dc:format>
        <dc:type
           rdf:resource="http://purl.org/dc/dcmitype/StillImage" />
        <dc:title></dc:title>
      </cc:Work>
    </rdf:RDF>
  </metadata>
  <g
     transform="translate(-6.344219,-229.6231)"
     id="layer1">
    <g
       transform="matrix(2.9054314,0,0,2.9054314,-2284.7587,-174.42374)"
       id="g13512">
      <path
         d="m 789.39099,154.71931 16.655,0 0,80.31625 -16.655,0 0,-80.31625 z"
         id="path9352"
         style="fill:#cb0520;fill-opacity:1;fill-rule:nonzero;stroke:none" />
      <path
         d="m 788.81436,143.73106 c -0.0487,-0.64125 1.15125,-2.41625 2.245,-2.41625 1.1175,0 1.73125,1.075 2.49875,2.00875 0.82125,0.995 1.3925,1.375 1.8225,1.12 0.345,-0.20375 0.34,-0.77 0.16625,-1.1975 -0.21375,-0.52875 -0.6525,-0.94625 -0.3975,-1.63875 0.23625,-0.64 1.02125,-1.0575 1.93625,-1.1975 0.87125,-0.13375 2.45125,-0.0437 3.4125,-0.315 1.62,-0.45625 2.03625,-1.375 2.7925,-0.8925 0.415,0.26375 0.48,0.78375 0.27125,1.45375 -0.16875,0.53625 -0.44,1.20625 -1.03125,1.72125 -0.42125,0.3675 -1.03875,0.6475 -1.69,0.9425 -0.80875,0.36875 -1.4325,0.67375 -1.29125,1.57125 0.05,0.31125 0.52625,0.53375 0.97125,0.485 0.60625,-0.0687 1.3175,-0.28125 1.96375,-0.3125 1.01875,-0.05 2.49875,0.45875 3.20625,0.80375 0.705,0.345 1.26625,0.85625 2.35125,1.96625 0.36875,0.3775 1.51375,1.795 1.64875,1.93 0.48875,0.4875 0.98,0.9275 1.27375,1.17375 0.1425,0.1175 0.11625,0.15 0.11625,0.15 0,0 -0.0275,0.006 -0.105,-0.025 -0.13125,-0.0538 -0.385,-0.1975 -0.83625,-0.495 -0.47625,-0.31625 -2.55875,-2.09625 -2.81375,-2.29875 -0.39375,-0.3125 -1.26875,-1.02125 -1.76625,-0.575 -0.235,0.21 -0.17625,0.69 -0.1075,0.905 0.0738,0.23 0.4025,0.70625 0.59125,1.125 0.215,0.47625 0.19625,1.4225 0.3125,1.85 0.115,0.4275 0.615,1.3875 0.22125,1.94 -0.26125,0.36875 -0.8525,0.5575 -1.37125,0.58375 -0.40625,0.0225 -0.8325,-0.0737 -0.95375,-0.3625 -0.33125,-0.785 0.63,-0.95 0.30875,-1.65 -0.10875,-0.24 -0.48,-0.1925 -0.66,-0.125 -0.31625,0.11625 -0.5925,0.365 -0.8575,0.58375 -0.14,0.115 -0.805,0.63375 -1.3975,1.08375 -0.50375,0.38625 -1.20125,0.4175 -1.4375,0.1 -0.55,-0.74 0.9,-1.19 1.2325,-1.4475 0.88875,-0.68625 1.61375,-1.64 0.91375,-2.5525 -0.525,-0.685 -1.44,-0.55625 -2.6125,-0.27 -1.29875,0.31625 -2.80625,0.72375 -3.67625,0.94875 -0.9825,0.25375 -2.16375,0.425 -2.77125,0.69125 -0.5175,0.22625 -1.8325,1.62 -1.9375,1.73125 -0.105,0.11 -0.77625,0.77 -1.01125,0.92 -0.40125,0.25625 -1.5,0.60125 -1.74375,0.0437 -0.25,-0.56875 0.64875,-0.8725 1.02625,-1.1675 0.35125,-0.27375 1.25875,-1.10875 1.25875,-1.90625 0,-0.675 -0.54125,-1.12625 -0.80125,-2.4375 -0.20375,-1.02875 -0.002,-1.59125 -0.145,-2.38875 -0.165,-0.92 -1.05,-1.18375 -1.12625,-2.16125"
         id="path9364"
         style="fill:#cb0520;fill-opacity:1;fill-rule:nonzero;stroke:none" />
      <path
         d="m 811.26761,151.20106 c 0,0 0.405,-0.0788 0.87125,0.0512 0.44125,0.12375 0.82625,0.295 0.76,0.5675 -0.06,0.25 -0.5725,0.155 -0.8125,0.0588 -0.62,-0.2475 -0.81875,-0.6775 -0.81875,-0.6775"
         id="path9368"
         style="fill:#e03a3e;fill-opacity:1;fill-rule:nonzero;stroke:none" />
      <path
         d="m 803.05099,225.90181 -5.67,0 0,-0.98375 5.67,0 0,0.98375 z"
         id="path9370"
         style="fill:#ffffff;fill-opacity:1;fill-rule:nonzero;stroke:none" />
      <path
         d="m 802.82487,221.15631 -2.41375,0 c -1.11375,0 -1.48875,0.5725 -1.48875,1.33 0,0.61125 0.1725,1.0175 0.3,1.25 l 0.64,-0.20375 c -0.11375,-0.2175 -0.21125,-0.52 -0.21125,-0.8575 0,-0.3525 0.18125,-0.5775 0.565,-0.5775 l 0.135,0 c 0.1425,1.0825 0.46625,1.85 1.50375,1.85 0.805,0 1.27125,-0.49 1.27125,-1.46125 0,-0.63125 -0.1125,-1.0375 -0.30125,-1.33 m -0.4275,0.94125 c 0.03,0.0738 0.0675,0.21 0.0675,0.345 0,0.38375 -0.23375,0.58625 -0.6475,0.58625 -0.58625,0 -0.79625,-0.3075 -0.88,-0.93125 l 1.46,0 z"
         id="path9374"
         style="fill:#ffffff;fill-opacity:1;fill-rule:nonzero;stroke:none" />
      <path
         d="m 801.56199,216.37881 c 0.5475,0 0.85,0.2475 0.84125,0.75125 0,0.1525 -0.0225,0.26375 -0.06,0.3625 l -1.6775,0 0,-0.15125 c 0,-0.7075 0.27875,-0.9625 0.89625,-0.9625 m 0.06,-1.03125 c -0.805,0 -1.17375,0.54125 -1.295,0.93375 l -0.0138,0 c -0.12,-0.34625 -0.43625,-0.7975 -1.13625,-0.7975 -0.8275,0 -1.37625,0.61 -1.37625,1.6775 0,0.58625 0.12,1.045 0.30125,1.32375 l 4.7225,0 c 0.19625,-0.31 0.30125,-0.76 0.30125,-1.37 0,-0.925 -0.39875,-1.7675 -1.50375,-1.7675 m -2.3625,1.12875 c 0.6175,0 0.82125,0.27125 0.82125,0.865 l 0,0.15125 -1.52,0 c -0.0375,-0.0987 -0.0525,-0.23375 -0.0525,-0.37 0,-0.42 0.23375,-0.64625 0.75125,-0.64625"
         id="path9378"
         style="fill:#ffffff;fill-opacity:1;fill-rule:nonzero;stroke:none" />
      <path
         d="m 803.05099,214.36431 -4.05375,0 0,-0.9775 4.05375,0 0,0.9775 z m -4.71625,-0.4825 c 0,0.285 -0.24125,0.51875 -0.52625,0.51875 -0.29375,0 -0.52625,-0.23375 -0.52625,-0.51875 0,-0.29375 0.2325,-0.53375 0.52625,-0.53375 0.285,0 0.52625,0.24 0.52625,0.53375"
         id="path9380"
         style="fill:#ffffff;fill-opacity:1;fill-rule:nonzero;stroke:none" />
      <path
         d="m 801.22324,209.39969 c -1.42875,-0.0762 -2.30125,0.42125 -2.30125,1.44375 0,0.9625 0.8725,1.51875 2.09125,1.51875 1.3225,0 2.11375,-0.57125 2.11375,-1.63875 0,-0.54125 -0.12125,-0.94125 -0.3025,-1.19625 l -0.68375,0.2175 c 0.0975,0.15875 0.21,0.4375 0.21,0.85125 0,0.48 -0.2925,0.735 -0.87875,0.79625 l -0.24875,-1.9925 z m -0.51875,0.955 0.135,1.09875 c -0.71375,0.006 -1.21125,-0.22625 -1.21125,-0.5875 0,-0.36125 0.39125,-0.51125 1.07625,-0.51125"
         id="path9384"
         style="fill:#ffffff;fill-opacity:1;fill-rule:nonzero;stroke:none" />
      <path
         d="m 803.05061,206.52581 -2.865,0 c -0.35375,0 -0.54875,0.14375 -0.54875,0.48875 0,0.2025 0.0213,0.30125 0.075,0.40625 l 3.33875,0 0,0.97 -3.8275,0 c -0.18125,-0.3225 -0.30125,-0.7825 -0.30125,-1.39875 0,-0.9925 0.40625,-1.45125 1.26375,-1.45125 l 2.865,0 0,0.985 z"
         id="path9388"
         style="fill:#ffffff;fill-opacity:1;fill-rule:nonzero;stroke:none" />
      <path
         d="m 803.05061,202.57094 -2.865,0 c -0.35375,0 -0.54875,0.14125 -0.54875,0.4875 0,0.2025 0.0213,0.30125 0.075,0.40625 l 3.33875,0 0,0.97 -3.8275,0 c -0.18125,-0.32375 -0.30125,-0.78125 -0.30125,-1.39875 0,-0.99125 0.40625,-1.45125 1.26375,-1.45125 l 2.865,0 0,0.98625 z"
         id="path9392"
         style="fill:#ffffff;fill-opacity:1;fill-rule:nonzero;stroke:none" />
      <path
         d="m 802.82487,197.84643 -2.41375,0 c -1.11375,0 -1.48875,0.57125 -1.48875,1.3325 0,0.6075 0.1725,1.015 0.3,1.2475 l 0.64,-0.2025 c -0.11375,-0.21875 -0.21125,-0.51875 -0.21125,-0.8575 0,-0.35375 0.18125,-0.57875 0.565,-0.57875 l 0.135,0 c 0.1425,1.08125 0.46625,1.85 1.50375,1.85 0.805,0 1.27125,-0.49 1.27125,-1.45875 0,-0.6325 -0.1125,-1.03875 -0.30125,-1.3325 m -0.4275,0.94125 c 0.03,0.075 0.0675,0.21 0.0675,0.345 0,0.38375 -0.23375,0.5875 -0.6475,0.5875 -0.58625,0 -0.79625,-0.31 -0.88,-0.9325 l 1.46,0 z"
         id="path9396"
         style="fill:#ffffff;fill-opacity:1;fill-rule:nonzero;stroke:none" />
      <path
         d="m 803.05099,196.72556 -5.69625,0 0,-0.985 5.69625,0 0,0.985 z"
         id="path9398"
         style="fill:#ffffff;fill-opacity:1;fill-rule:nonzero;stroke:none" />
      <path
         d="m 801.22324,191.75456 c -1.42875,-0.075 -2.30125,0.42125 -2.30125,1.44375 0,0.9625 0.8725,1.52 2.09125,1.52 1.3225,0 2.11375,-0.5725 2.11375,-1.63875 0,-0.54375 -0.12125,-0.9425 -0.3025,-1.19625 l -0.68375,0.2175 c 0.0975,0.1575 0.21,0.435 0.21,0.85 0,0.48125 -0.2925,0.7375 -0.87875,0.7975 l -0.24875,-1.99375 z m -0.51875,0.955 0.135,1.09875 c -0.71375,0.006 -1.21125,-0.22625 -1.21125,-0.5875 0,-0.36 0.39125,-0.51125 1.07625,-0.51125"
         id="path9402"
         style="fill:#ffffff;fill-opacity:1;fill-rule:nonzero;stroke:none" />
      <path
         d="m 802.82487,186.14781 -5.47,0 0,0.9775 1.6725,0 c -0.0388,0.0975 -0.075,0.2325 -0.075,0.47375 0,0.85625 0.79625,1.4575 2.09875,1.4575 1.34625,0 2.075,-0.5925 2.075,-1.63125 0,-0.6025 -0.1125,-0.9775 -0.30125,-1.2775 m -0.48125,0.9775 c 0.0462,0.075 0.0462,0.18 0.0462,0.27 0,0.49625 -0.5275,0.69125 -1.3925,0.69125 -0.76,0 -1.38375,-0.1575 -1.38375,-0.72125 0,-0.0913 0.015,-0.1725 0.03,-0.24 l 2.7,0 z"
         id="path9406"
         style="fill:#ffffff;fill-opacity:1;fill-rule:nonzero;stroke:none" />
      <path
         d="m 803.05099,185.02681 -4.05375,0 0,-0.9775 4.05375,0 0,0.9775 z m -4.71625,-0.48125 c 0,0.285 -0.24125,0.51875 -0.52625,0.51875 -0.29375,0 -0.52625,-0.23375 -0.52625,-0.51875 0,-0.295 0.2325,-0.53375 0.52625,-0.53375 0.285,0 0.52625,0.23875 0.52625,0.53375"
         id="path9408"
         style="fill:#ffffff;fill-opacity:1;fill-rule:nonzero;stroke:none" />
      <path
         d="m 803.05061,178.82281 0,0.91125 -5.17375,1.24125 0,-1.05375 3.12,-0.57875 c 0.3025,-0.0525 0.6475,-0.09 0.6475,-0.09 l 0,-0.015 c 0,0 -0.345,-0.0375 -0.6475,-0.0975 l -3.12,-0.6025 0,-0.95625 5.17375,1.24125 z"
         id="path9412"
         style="fill:#ffffff;fill-opacity:1;fill-rule:nonzero;stroke:none" />
      <path
         d="m 801.22324,174.22856 c -1.42875,-0.075 -2.30125,0.4225 -2.30125,1.44375 0,0.96375 0.8725,1.52 2.09125,1.52 1.3225,0 2.11375,-0.57125 2.11375,-1.64 0,-0.54125 -0.12125,-0.94 -0.3025,-1.195 l -0.68375,0.2175 c 0.0975,0.1575 0.21,0.43625 0.21,0.85 0,0.4825 -0.2925,0.73625 -0.87875,0.7975 l -0.24875,-1.99375 z m -0.51875,0.95625 0.135,1.0975 c -0.71375,0.007 -1.21125,-0.225 -1.21125,-0.5875 0,-0.36 0.39125,-0.51 1.07625,-0.51"
         id="path9416"
         style="fill:#ffffff;fill-opacity:1;fill-rule:nonzero;stroke:none" />
      <path
         d="m 803.05061,171.35656 -2.865,0 c -0.35375,0 -0.54875,0.14125 -0.54875,0.48875 0,0.2025 0.0213,0.3 0.075,0.40625 l 3.33875,0 0,0.97 -3.8275,0 c -0.18125,-0.32375 -0.30125,-0.7825 -0.30125,-1.39875 0,-0.9925 0.40625,-1.45125 1.26375,-1.45125 l 2.865,0 0,0.985 z"
         id="path9420"
         style="fill:#ffffff;fill-opacity:1;fill-rule:nonzero;stroke:none" />
      <path
         d="m 801.22324,166.40681 c -1.42875,-0.075 -2.30125,0.4225 -2.30125,1.445 0,0.9625 0.8725,1.51875 2.09125,1.51875 1.3225,0 2.11375,-0.57125 2.11375,-1.64 0,-0.54125 -0.12125,-0.94 -0.3025,-1.195 l -0.68375,0.2175 c 0.0975,0.15875 0.21,0.43625 0.21,0.85 0,0.48125 -0.2925,0.7375 -0.87875,0.7975 l -0.24875,-1.99375 z m -0.51875,0.95625 0.135,1.0975 c -0.71375,0.008 -1.21125,-0.22625 -1.21125,-0.5875 0,-0.36 0.39125,-0.51 1.07625,-0.51"
         id="path9424"
         style="fill:#ffffff;fill-opacity:1;fill-rule:nonzero;stroke:none" />
      <path
         d="m 803.05061,165.70756 -3.32375,-1.18125 0,1.09125 -0.73,0 0,-2.30875 3.3175,1.12875 0,-1.13625 0.73625,0 0,2.40625 z"
         id="path9428"
         style="fill:#ffffff;fill-opacity:1;fill-rule:nonzero;stroke:none" />
      <path
         d="m 803.05099,162.37556 -4.05375,0 0,-0.9775 4.05375,0 0,0.9775 z m -4.71625,-0.48125 c 0,0.28625 -0.24125,0.51875 -0.52625,0.51875 -0.29375,0 -0.52625,-0.2325 -0.52625,-0.51875 0,-0.29375 0.2325,-0.53375 0.52625,-0.53375 0.285,0 0.52625,0.24 0.52625,0.53375"
         id="path9430"
         style="fill:#ffffff;fill-opacity:1;fill-rule:nonzero;stroke:none" />
      <path
         d="m 802.82487,157.63806 -2.41375,0 c -1.11375,0 -1.48875,0.57125 -1.48875,1.33125 0,0.60875 0.1725,1.015 0.3,1.24875 l 0.64,-0.20375 c -0.11375,-0.2175 -0.21125,-0.51875 -0.21125,-0.8575 0,-0.35375 0.18125,-0.58 0.565,-0.58 l 0.135,0 c 0.1425,1.08375 0.46625,1.85125 1.50375,1.85125 0.805,0 1.27125,-0.48875 1.27125,-1.45875 0,-0.6325 -0.1125,-1.03875 -0.30125,-1.33125 m -0.4275,0.93875 c 0.03,0.0763 0.0675,0.21125 0.0675,0.3475 0,0.38375 -0.23375,0.58625 -0.6475,0.58625 -0.58625,0 -0.79625,-0.30875 -0.88,-0.93375 l 1.46,0 z"
         id="path9434"
         style="fill:#ffffff;fill-opacity:1;fill-rule:nonzero;stroke:none" />
      <path
         d="m 811.88974,154.71931 79.92375,0 0,80.31625 -79.92375,0 0,-80.31625 z"
         id="path9436"
         style="fill:#cb0520;fill-opacity:1;fill-rule:nonzero;stroke:none" />
      <path
         d="m 819.80674,187.48194 c -1.435,0 -2.0875,-1.5175 -2.0875,-3.25625 0,-1.68375 0.68,-3.25625 2.115,-3.25625 0.525,0 0.90125,0.13875 1.15875,0.3675 l -0.2475,0.8375 c -0.12875,-0.10125 -0.33125,-0.18375 -0.64375,-0.18375 -0.85625,0 -1.095,1.1675 -1.095,2.235 0,1.03875 0.29375,2.17125 1.085,2.17125 0.33125,0 0.515,-0.0825 0.65375,-0.18375 l 0.2575,0.90125 c -0.24,0.23 -0.62625,0.3675 -1.19625,0.3675"
         id="path9440"
         style="fill:#ffffff;fill-opacity:1;fill-rule:nonzero;stroke:none" />
      <path
         d="m 821.69224,182.43181 1.19625,0 0,4.9575 -1.19625,0 0,-4.9575 z m 0.58875,-0.81 c -0.35,0 -0.635,-0.29375 -0.635,-0.6425 0,-0.35875 0.285,-0.645 0.635,-0.645 0.35875,0 0.6525,0.28625 0.6525,0.645 0,0.34875 -0.29375,0.6425 -0.6525,0.6425"
         id="path9442"
         style="fill:#ffffff;fill-opacity:1;fill-rule:nonzero;stroke:none" />
      <path
         d="m 826.18111,187.39019 0,-3.505 c 0,-0.4325 -0.175,-0.67125 -0.5975,-0.67125 -0.24875,0 -0.36875,0.0275 -0.4975,0.0925 l 0,4.08375 -1.18625,0 0,-4.6825 c 0.395,-0.22 0.95625,-0.3675 1.71125,-0.3675 1.21375,0 1.775,0.49625 1.775,1.545 l 0,3.505 -1.205,0 z"
         id="path9446"
         style="fill:#ffffff;fill-opacity:1;fill-rule:nonzero;stroke:none" />
      <path
         d="m 830.07249,183.20456 c -0.44125,0 -0.72625,0.6075 -0.7175,1.48125 l 1.3425,-0.16625 c 0,-0.83625 -0.18375,-1.315 -0.625,-1.315 m -0.64375,2.25375 c 0.0738,0.7175 0.38625,1.07625 0.975,1.07625 0.50625,0 0.84625,-0.1375 1.03875,-0.2575 l 0.2675,0.8375 c -0.31375,0.22 -0.8,0.3675 -1.4625,0.3675 -1.30625,0 -2.005,-0.96625 -2.005,-2.585 0,-1.49 0.68,-2.55625 1.8575,-2.55625 1.25125,0 1.8575,1.06625 1.76625,2.81375 l -2.4375,0.30375 z"
         id="path9450"
         style="fill:#ffffff;fill-opacity:1;fill-rule:nonzero;stroke:none" />
      <path
         d="m 837.30224,187.39019 0,-3.505 c 0,-0.41375 -0.19375,-0.68 -0.56125,-0.68 -0.22,0 -0.38625,0.0738 -0.52375,0.22 l 0,3.965 -1.205,0 0,-3.49625 c 0,-0.40375 -0.2025,-0.68875 -0.6075,-0.68875 -0.23,0 -0.35,0.0363 -0.4875,0.0913 l 0,4.09375 -1.18625,0 0,-4.6825 c 0.38625,-0.22 0.8825,-0.3675 1.6825,-0.3675 0.7175,0 1.11375,0.21125 1.33375,0.47875 0.285,-0.285 0.68125,-0.47875 1.33375,-0.47875 0.8375,0 1.4175,0.56125 1.4175,1.545 l 0,3.505 -1.19625,0 z"
         id="path9454"
         style="fill:#ffffff;fill-opacity:1;fill-rule:nonzero;stroke:none" />
      <path
         d="m 841.56061,184.80556 c -0.7625,0.10125 -1.14,0.35875 -1.14,1.07625 0,0.505 0.2475,0.79125 0.7175,0.79125 0.16625,0 0.33125,-0.0462 0.4225,-0.0825 l 0,-1.785 z m -0.4775,2.67625 c -1.1875,0 -1.785,-0.57 -1.785,-1.55375 0,-1.27 0.93875,-1.665 2.2625,-1.84 l 0,-0.16625 c 0,-0.46875 -0.27625,-0.69 -0.7075,-0.69 -0.41375,0 -0.7825,0.12 -1.04875,0.25875 l -0.24875,-0.7825 c 0.285,-0.15625 0.7825,-0.3675 1.5275,-0.3675 0.92875,0 1.6275,0.45875 1.6275,1.82125 l 0,2.9525 c -0.35875,0.23 -0.855,0.3675 -1.6275,0.3675"
         id="path9458"
         style="fill:#ffffff;fill-opacity:1;fill-rule:nonzero;stroke:none" />
      <path
         d="m 819.46662,191.55381 c -0.1475,0 -0.2675,0.0275 -0.35,0.0637 l 0,4.44375 c 0.0738,0.0275 0.21125,0.055 0.36875,0.055 0.7725,0 1.075,-0.6625 1.075,-2.30875 0,-1.545 -0.3125,-2.25375 -1.09375,-2.25375 m 0.0187,5.565 c -0.70875,0 -1.27875,-0.1375 -1.61,-0.3675 l 0,-5.7775 c 0.35875,-0.21125 0.8925,-0.3675 1.545,-0.3675 1.73875,0 2.41,1.38875 2.41,3.23875 0,1.8025 -0.61625,3.27375 -2.345,3.27375"
         id="path9462"
         style="fill:#ffffff;fill-opacity:1;fill-rule:nonzero;stroke:none" />
      <path
         d="m 824.70024,194.44256 c -0.76375,0.10125 -1.14,0.35875 -1.14,1.07625 0,0.505 0.2475,0.79125 0.7175,0.79125 0.165,0 0.33125,-0.0462 0.4225,-0.0825 l 0,-1.785 z m -0.4775,2.67625 c -1.1875,0 -1.785,-0.57 -1.785,-1.55375 0,-1.27 0.93875,-1.665 2.2625,-1.84 l 0,-0.16625 c 0,-0.46875 -0.27625,-0.69 -0.7075,-0.69 -0.415,0 -0.7825,0.12 -1.04875,0.25875 l -0.24875,-0.7825 c 0.285,-0.15625 0.78125,-0.3675 1.5275,-0.3675 0.92875,0 1.6275,0.45875 1.6275,1.82125 l 0,2.9525 c -0.35875,0.23 -0.855,0.3675 -1.6275,0.3675"
         id="path9466"
         style="fill:#ffffff;fill-opacity:1;fill-rule:nonzero;stroke:none" />
      <path
         d="m 829.11549,197.02706 0,-3.505 c 0,-0.4325 -0.175,-0.67125 -0.5975,-0.67125 -0.24875,0 -0.36875,0.0275 -0.4975,0.0925 l 0,4.08375 -1.18625,0 0,-4.6825 c 0.395,-0.22 0.95625,-0.3675 1.71125,-0.3675 1.21375,0 1.775,0.49625 1.775,1.545 l 0,3.505 -1.205,0 z"
         id="path9470"
         style="fill:#ffffff;fill-opacity:1;fill-rule:nonzero;stroke:none" />
      <path
         d="m 831.01924,197.02706 1.44375,-4.065 -1.33375,0 0,-0.8925 2.825,0 -1.38,4.05625 1.38875,0 0,0.90125 -2.94375,0 z"
         id="path9474"
         style="fill:#ffffff;fill-opacity:1;fill-rule:nonzero;stroke:none" />
      <path
         d="m 836.68561,194.44256 c -0.76375,0.10125 -1.14,0.35875 -1.14,1.07625 0,0.505 0.2475,0.79125 0.7175,0.79125 0.165,0 0.33125,-0.0462 0.4225,-0.0825 l 0,-1.785 z m -0.4775,2.67625 c -1.1875,0 -1.785,-0.57 -1.785,-1.55375 0,-1.27 0.93875,-1.665 2.2625,-1.84 l 0,-0.16625 c 0,-0.46875 -0.27625,-0.69 -0.7075,-0.69 -0.415,0 -0.7825,0.12 -1.04875,0.25875 l -0.24875,-0.7825 c 0.285,-0.15625 0.78125,-0.3675 1.5275,-0.3675 0.92875,0 1.6275,0.45875 1.6275,1.82125 l 0,2.9525 c -0.35875,0.23 -0.855,0.3675 -1.6275,0.3675"
         id="path9478"
         style="fill:#ffffff;fill-opacity:1;fill-rule:nonzero;stroke:none" />
      <path
         d="m 822.08812,206.66306 -0.24875,-3.59625 c -0.0175,-0.33125 -0.0175,-0.70875 -0.0175,-0.70875 l -0.0187,0 c 0,0 -0.0825,0.3775 -0.16625,0.70875 l -0.92875,3.59625 -0.5975,0 -0.93875,-3.59625 c -0.0825,-0.3225 -0.15625,-0.70875 -0.15625,-0.70875 l -0.0188,0 c 0,0 0,0.38625 -0.0175,0.69875 l -0.24,3.60625 -1.10375,0 0.5525,-6.32875 1.1675,0 0.92,3.52375 c 0.0925,0.34 0.15625,0.69875 0.15625,0.69875 l 0.0187,0 c 0,0 0.065,-0.35 0.15625,-0.69 l 0.9475,-3.5325 1.15875,0 0.56125,6.32875 -1.18625,0 z"
         id="path9482"
         style="fill:#ffffff;fill-opacity:1;fill-rule:nonzero;stroke:none" />
      <path
         d="m 825.82249,206.75506 c -1.10375,0 -1.73875,-0.47875 -1.73875,-1.72 l 0,-3.33 1.19625,0 0,3.46875 c 0,0.395 0.19375,0.6425 0.58,0.6425 0.18375,0 0.34875,-0.045 0.4775,-0.11875 l 0,-3.9925 1.205,0 0,4.66375 c -0.35875,0.23 -0.9375,0.38625 -1.72,0.38625"
         id="path9486"
         style="fill:#ffffff;fill-opacity:1;fill-rule:nonzero;stroke:none" />
      <path
         d="m 829.51099,206.75506 c -0.56125,0 -0.9475,-0.12 -1.2325,-0.3675 l 0.295,-0.87375 c 0.1375,0.12875 0.43125,0.275 0.75375,0.275 0.3125,0 0.515,-0.18375 0.515,-0.46 0,-0.35875 -0.15625,-0.505 -0.5975,-0.83625 -0.47,-0.35 -0.88375,-0.7825 -0.88375,-1.435 0,-0.84625 0.56125,-1.44375 1.38875,-1.44375 0.53375,0 0.92875,0.1375 1.215,0.3675 l -0.28625,0.76375 c -0.11875,-0.11125 -0.34875,-0.24 -0.6525,-0.24 -0.29375,0 -0.4775,0.22125 -0.4775,0.47 0,0.32125 0.23,0.515 0.67125,0.83625 0.515,0.38625 0.8825,0.745 0.8825,1.4725 0,0.84625 -0.67125,1.47125 -1.59125,1.47125"
         id="path9490"
         style="fill:#ffffff;fill-opacity:1;fill-rule:nonzero;stroke:none" />
      <path
         d="m 831.89349,201.70556 1.19625,0 0,4.9575 -1.19625,0 0,-4.9575 z m 0.58875,-0.81 c -0.35,0 -0.635,-0.29375 -0.635,-0.64375 0,-0.35875 0.285,-0.64375 0.635,-0.64375 0.35875,0 0.6525,0.285 0.6525,0.64375 0,0.35 -0.29375,0.64375 -0.6525,0.64375"
         id="path9492"
         style="fill:#ffffff;fill-opacity:1;fill-rule:nonzero;stroke:none" />
      <path
         d="m 835.68337,206.75506 c -1.0125,0 -1.71125,-0.89125 -1.71125,-2.585 0,-1.68375 0.7725,-2.55625 1.71125,-2.55625 0.53375,0 0.84625,0.165 1.03,0.3675 l -0.23875,0.745 c -0.0925,-0.0925 -0.2575,-0.18375 -0.50625,-0.18375 -0.53375,0 -0.79125,0.635 -0.79125,1.60875 0,1.00375 0.295,1.61 0.7725,1.61 0.2575,0 0.415,-0.0738 0.525,-0.18375 l 0.24875,0.81 c -0.185,0.2025 -0.47875,0.3675 -1.04,0.3675"
         id="path9496"
         style="fill:#ffffff;fill-opacity:1;fill-rule:nonzero;stroke:none" />
      <path
         d="m 839.38049,204.07881 c -0.76375,0.10125 -1.14,0.35875 -1.14,1.07625 0,0.505 0.2475,0.79125 0.7175,0.79125 0.165,0 0.33125,-0.0463 0.4225,-0.0825 l 0,-1.785 z m -0.4775,2.67625 c -1.1875,0 -1.785,-0.57 -1.785,-1.55375 0,-1.27 0.93875,-1.665 2.2625,-1.84 l 0,-0.16625 c 0,-0.46875 -0.27625,-0.69 -0.7075,-0.69 -0.415,0 -0.7825,0.12 -1.04875,0.25875 l -0.24875,-0.7825 c 0.285,-0.15625 0.78125,-0.3675 1.5275,-0.3675 0.92875,0 1.6275,0.45875 1.6275,1.82125 l 0,2.9525 c -0.35875,0.23 -0.855,0.3675 -1.6275,0.3675"
         id="path9500"
         style="fill:#ffffff;fill-opacity:1;fill-rule:nonzero;stroke:none" />
      <path
         d="m 819.67811,210.94643 0,5.35375 -1.27,0 0,-5.35375 -0.92875,0 0,-0.975 3.1275,0 0,0.975 -0.92875,0 z"
         id="path9504"
         style="fill:#ffffff;fill-opacity:1;fill-rule:nonzero;stroke:none" />
      <path
         d="m 822.50161,212.11468 c -0.44125,0 -0.72625,0.6075 -0.7175,1.48125 l 1.3425,-0.16625 c 0,-0.83625 -0.18375,-1.315 -0.625,-1.315 m -0.64375,2.25375 c 0.0738,0.7175 0.38625,1.07625 0.975,1.07625 0.50625,0 0.84625,-0.1375 1.03875,-0.2575 l 0.2675,0.8375 c -0.3125,0.22 -0.8,0.3675 -1.4625,0.3675 -1.30625,0 -2.005,-0.96625 -2.005,-2.585 0,-1.49 0.68,-2.55625 1.8575,-2.55625 1.25125,0 1.8575,1.06625 1.76625,2.81375 l -2.4375,0.30375 z"
         id="path9508"
         style="fill:#ffffff;fill-opacity:1;fill-rule:nonzero;stroke:none" />
      <path
         d="m 827.09899,213.71581 c -0.76375,0.1 -1.14,0.35875 -1.14,1.075 0,0.50625 0.2475,0.7925 0.7175,0.7925 0.165,0 0.33125,-0.0463 0.4225,-0.0825 l 0,-1.785 z m -0.47875,2.67625 c -1.18625,0 -1.78375,-0.57 -1.78375,-1.55375 0,-1.27 0.93875,-1.665 2.2625,-1.84125 l 0,-0.165 c 0,-0.46875 -0.27625,-0.69 -0.7075,-0.69 -0.415,0 -0.7825,0.12 -1.04875,0.25875 l -0.24875,-0.7825 c 0.285,-0.15625 0.78125,-0.3675 1.52625,-0.3675 0.93,0 1.62875,0.45875 1.62875,1.82 l 0,2.95375 c -0.35875,0.23 -0.855,0.3675 -1.62875,0.3675"
         id="path9512"
         style="fill:#ffffff;fill-opacity:1;fill-rule:nonzero;stroke:none" />
      <path
         d="m 830.63136,216.36444 c -0.81,0 -1.25125,-0.5525 -1.25125,-1.42625 l 0,-2.70375 -0.44125,0 0,-0.8925 0.44125,0 0,-1.075 1.19625,-0.3775 0,1.4525 0.6525,0 0,0.8925 -0.6525,0 0,2.57625 c 0,0.45875 0.15625,0.615 0.405,0.615 0.11,0 0.18375,-0.0275 0.2475,-0.045 l 0,0.855 c -0.0738,0.0563 -0.32125,0.12875 -0.5975,0.12875"
         id="path9516"
         style="fill:#ffffff;fill-opacity:1;fill-rule:nonzero;stroke:none" />
      <path
         d="m 833.97974,212.23493 c -0.27625,-0.13875 -0.58875,-0.12875 -0.81875,-0.0187 l 0,4.08375 -1.18625,0 0,-4.6825 c 0.45,-0.26625 1.085,-0.4125 2.22625,-0.35875 l -0.22125,0.97625 z"
         id="path9520"
         style="fill:#ffffff;fill-opacity:1;fill-rule:nonzero;stroke:none" />
      <path
         d="m 836.26049,212.13369 c -0.52375,0 -0.61625,0.75375 -0.61625,1.655 0,0.90125 0.10125,1.6375 0.61625,1.6375 0.53375,0 0.625,-0.73625 0.625,-1.6275 0,-0.90125 -0.0913,-1.665 -0.625,-1.665 m 0,4.25875 c -1.21375,0 -1.8125,-1.10375 -1.8125,-2.57625 0,-1.47125 0.59875,-2.565 1.8125,-2.565 1.22375,0 1.8125,1.09375 1.8125,2.565 0,1.4725 -0.58875,2.57625 -1.8125,2.57625"
         id="path9524"
         style="fill:#ffffff;fill-opacity:1;fill-rule:nonzero;stroke:none" />
      <path
         d="m 819.78174,221.88494 c -0.0838,-0.38125 -0.15875,-0.8275 -0.15875,-0.8275 l -0.0187,0 c 0,0 -0.0738,0.4275 -0.1675,0.8275 l -0.4375,1.835 1.20125,0 -0.41875,-1.835 z m 0.93125,4.05125 -0.33625,-1.35875 -1.5725,0 -0.33625,1.35875 -1.1075,0 1.76875,-6.40625 1.14625,0 1.74125,6.40625 -1.30375,0 z"
         id="path9528"
         style="fill:#ffffff;fill-opacity:1;fill-rule:nonzero;stroke:none" />
      <path
         d="m 824.54012,221.82056 c -0.28,-0.13875 -0.59625,-0.13125 -0.82875,-0.0188 l 0,4.135 -1.20125,0 0,-4.74 c 0.45625,-0.27 1.09875,-0.41875 2.25375,-0.36375 l -0.22375,0.9875 z"
         id="path9532"
         style="fill:#ffffff;fill-opacity:1;fill-rule:nonzero;stroke:none" />
      <path
         d="m 826.69999,226.02968 c -1.02375,0 -1.73125,-0.9025 -1.73125,-2.61625 0,-1.705 0.78125,-2.59 1.73125,-2.59 0.54,0 0.85625,0.16875 1.04375,0.3725 l -0.2425,0.755 c -0.0937,-0.0937 -0.26125,-0.18625 -0.5125,-0.18625 -0.54,0 -0.80125,0.6425 -0.80125,1.63 0,1.015 0.29875,1.63 0.7825,1.63 0.26,0 0.41875,-0.075 0.53125,-0.18625 l 0.25125,0.81875 c -0.18625,0.205 -0.485,0.3725 -1.0525,0.3725"
         id="path9536"
         style="fill:#ffffff;fill-opacity:1;fill-rule:nonzero;stroke:none" />
      <path
         d="m 830.69549,225.93631 0,-3.52875 c 0,-0.4475 -0.22375,-0.69875 -0.58625,-0.69875 -0.19625,0 -0.355,0.0362 -0.5225,0.13 l 0,4.0975 -1.2,0 0,-7.31 1.2,0 0,2.44 c 0.2525,-0.14875 0.55,-0.23375 0.885,-0.23375 0.9225,0 1.44375,0.5975 1.44375,1.575 l 0,3.52875 -1.22,0 z"
         id="path9540"
         style="fill:#ffffff;fill-opacity:1;fill-rule:nonzero;stroke:none" />
      <path
         d="m 832.88349,220.91681 1.21,0 0,5.01875 -1.21,0 0,-5.01875 z m 0.59625,-0.81875 c -0.35375,0 -0.6425,-0.2975 -0.6425,-0.6525 0,-0.3625 0.28875,-0.6525 0.6425,-0.6525 0.3625,0 0.66125,0.29 0.66125,0.6525 0,0.355 -0.29875,0.6525 -0.66125,0.6525"
         id="path9542"
         style="fill:#ffffff;fill-opacity:1;fill-rule:nonzero;stroke:none" />
      <path
         d="m 837.21399,225.93631 -1.145,0 -1.3325,-5.01875 1.23875,0 0.69875,3.34375 0.01,0 0.72625,-3.34375 1.11625,0 -1.3125,5.01875 z"
         id="path9546"
         style="fill:#ffffff;fill-opacity:1;fill-rule:nonzero;stroke:none" />
      <path
         d="m 839.16974,220.91681 1.21,0 0,5.01875 -1.21,0 0,-5.01875 z m 0.59625,-0.81875 c -0.35375,0 -0.6425,-0.2975 -0.6425,-0.6525 0,-0.3625 0.28875,-0.6525 0.6425,-0.6525 0.3625,0 0.66125,0.29 0.66125,0.6525 0,0.355 -0.29875,0.6525 -0.66125,0.6525"
         id="path9548"
         style="fill:#ffffff;fill-opacity:1;fill-rule:nonzero;stroke:none" />
      <path
         d="m 843.06199,221.71806 c -0.53125,0 -0.62375,0.76375 -0.62375,1.67625 0,0.9125 0.1025,1.6575 0.62375,1.6575 0.54,0 0.63375,-0.745 0.63375,-1.64875 0,-0.9125 -0.0937,-1.685 -0.63375,-1.685 m 0,4.31125 c -1.23,0 -1.835,-1.11625 -1.835,-2.6075 0,-1.49 0.605,-2.5975 1.835,-2.5975 1.23875,0 1.835,1.1075 1.835,2.5975 0,1.49125 -0.59625,2.6075 -1.835,2.6075"
         id="path9552"
         style="fill:#ffffff;fill-opacity:1;fill-rule:nonzero;stroke:none" />
      <path
         d="m 849.10512,226.02968 c -0.68,0 -1.13625,-0.14875 -1.425,-0.3725 l 0.29875,-1.00625 c 0.13875,0.12125 0.465,0.29875 0.88375,0.29875 0.42875,0 0.7175,-0.28875 0.7175,-0.67125 0,-0.465 -0.21375,-0.735 -0.82,-1.24625 -0.6975,-0.5975 -1.015,-1.1275 -1.015,-1.82625 0,-1.08 0.7075,-1.76875 1.71375,-1.76875 0.5225,0 0.9875,0.14875 1.24875,0.37125 l -0.23375,0.8675 c -0.14875,-0.1225 -0.4375,-0.24375 -0.8,-0.24375 -0.39125,0 -0.67125,0.25125 -0.67125,0.68125 0,0.4275 0.19625,0.68 0.79125,1.18125 0.73625,0.625 1.1275,1.1 1.1275,1.9 0,1.10875 -0.72625,1.835 -1.81625,1.835"
         id="path9556"
         style="fill:#ffffff;fill-opacity:1;fill-rule:nonzero;stroke:none" />
      <path
         d="m 853.09099,226.00206 c -0.82,0 -1.26625,-0.55875 -1.26625,-1.44375 l 0,-2.7375 -0.4475,0 0,-0.90375 0.4475,0 0,-1.08875 1.21,-0.3825 0,1.47125 0.66125,0 0,0.90375 -0.66125,0 0,2.6075 c 0,0.465 0.15875,0.62375 0.41,0.62375 0.1125,0 0.18625,-0.0275 0.25125,-0.0475 l 0,0.86625 c -0.0738,0.0575 -0.32625,0.13125 -0.605,0.13125"
         id="path9560"
         style="fill:#ffffff;fill-opacity:1;fill-rule:nonzero;stroke:none" />
      <path
         d="m 856.03311,221.71806 c -0.53125,0 -0.62375,0.76375 -0.62375,1.67625 0,0.9125 0.1025,1.6575 0.62375,1.6575 0.54,0 0.63375,-0.745 0.63375,-1.64875 0,-0.9125 -0.0937,-1.685 -0.63375,-1.685 m 0,4.31125 c -1.22875,0 -1.835,-1.11625 -1.835,-2.6075 0,-1.49 0.60625,-2.5975 1.835,-2.5975 1.23875,0 1.835,1.1075 1.835,2.5975 0,1.49125 -0.59625,2.6075 -1.835,2.6075"
         id="path9564"
         style="fill:#ffffff;fill-opacity:1;fill-rule:nonzero;stroke:none" />
      <path
         d="m 860.72636,221.82056 c -0.27875,-0.13875 -0.59625,-0.13125 -0.82875,-0.0188 l 0,4.135 -1.20125,0 0,-4.74 c 0.45625,-0.27 1.09875,-0.41875 2.25375,-0.36375 l -0.22375,0.9875 z"
         id="path9568"
         style="fill:#ffffff;fill-opacity:1;fill-rule:nonzero;stroke:none" />
      <path
         d="m 861.49099,220.91681 1.21,0 0,5.01875 -1.21,0 0,-5.01875 z m 0.595,-0.81875 c -0.35375,0 -0.6425,-0.2975 -0.6425,-0.6525 0,-0.3625 0.28875,-0.6525 0.6425,-0.6525 0.3625,0 0.66125,0.29 0.66125,0.6525 0,0.355 -0.29875,0.6525 -0.66125,0.6525"
         id="path9570"
         style="fill:#ffffff;fill-opacity:1;fill-rule:nonzero;stroke:none" />
      <path
         d="m 865.28037,226.02968 c -1.02375,0 -1.7325,-0.9025 -1.7325,-2.61625 0,-1.705 0.7825,-2.59 1.7325,-2.59 0.54,0 0.85625,0.16875 1.04375,0.3725 l -0.2425,0.755 c -0.0937,-0.0937 -0.26125,-0.18625 -0.5125,-0.18625 -0.54,0 -0.8,0.6425 -0.8,1.63 0,1.015 0.2975,1.63 0.78125,1.63 0.26125,0 0.41875,-0.075 0.53125,-0.18625 l 0.25125,0.81875 c -0.18625,0.205 -0.485,0.3725 -1.0525,0.3725"
         id="path9574"
         style="fill:#ffffff;fill-opacity:1;fill-rule:nonzero;stroke:none" />
      <path
         d="m 868.52024,221.71806 c -0.53125,0 -0.62375,0.76375 -0.62375,1.67625 0,0.9125 0.1025,1.6575 0.62375,1.6575 0.54,0 0.63375,-0.745 0.63375,-1.64875 0,-0.9125 -0.0937,-1.685 -0.63375,-1.685 m 0,4.31125 c -1.22875,0 -1.835,-1.11625 -1.835,-2.6075 0,-1.49 0.60625,-2.5975 1.835,-2.5975 1.2375,0 1.835,1.1075 1.835,2.5975 0,1.49125 -0.5975,2.6075 -1.835,2.6075"
         id="path9578"
         style="fill:#ffffff;fill-opacity:1;fill-rule:nonzero;stroke:none" />
      <path
         d="m 819.75086,173.75243 c -0.0825,-0.3775 -0.15625,-0.81875 -0.15625,-0.81875 l -0.0187,0 c 0,0 -0.0725,0.4225 -0.165,0.81875 l -0.4325,1.8125 1.1875,0 -0.415,-1.8125 z m 0.92,4.00125 -0.33125,-1.3425 -1.55375,0 -0.33125,1.3425 -1.095,0 1.7475,-6.32875 1.13125,0 1.72125,6.32875 -1.28875,0 z"
         id="path9582"
         style="fill:#ffffff;fill-opacity:1;fill-rule:nonzero;stroke:none" />
      <path
         d="m 824.49774,173.68831 c -0.27625,-0.13875 -0.58875,-0.12875 -0.81875,-0.0188 l 0,4.08375 -1.1875,0 0,-4.68125 c 0.45125,-0.2675 1.08625,-0.41375 2.2275,-0.35875 l -0.22125,0.975 z"
         id="path9586"
         style="fill:#ffffff;fill-opacity:1;fill-rule:nonzero;stroke:none" />
      <path
         d="m 826.67749,177.84556 c -1.01125,0 -1.71125,-0.8925 -1.71125,-2.585 0,-1.68375 0.7725,-2.55625 1.71125,-2.55625 0.53375,0 0.84625,0.165 1.03,0.3675 l -0.23875,0.745 c -0.0925,-0.0925 -0.2575,-0.18375 -0.50625,-0.18375 -0.53375,0 -0.79125,0.635 -0.79125,1.60875 0,1.00375 0.295,1.61 0.7725,1.61 0.2575,0 0.415,-0.0737 0.525,-0.18375 l 0.24875,0.81 c -0.185,0.2025 -0.47875,0.3675 -1.04,0.3675"
         id="path9590"
         style="fill:#ffffff;fill-opacity:1;fill-rule:nonzero;stroke:none" />
      <path
         d="m 830.66911,177.75381 0,-3.48625 c 0,-0.44125 -0.22125,-0.69 -0.57875,-0.69 -0.19375,0 -0.35,0.0375 -0.51625,0.12875 l 0,4.0475 -1.18625,0 0,-7.22125 1.18625,0 0,2.41 c 0.24875,-0.14625 0.54375,-0.23 0.87375,-0.23 0.91125,0 1.42625,0.58875 1.42625,1.555 l 0,3.48625 -1.205,0 z"
         id="path9594"
         style="fill:#ffffff;fill-opacity:1;fill-rule:nonzero;stroke:none" />
      <path
         d="m 832.87724,172.79556 1.195,0 0,4.9575 -1.195,0 0,-4.9575 z m 0.58875,-0.81 c -0.35,0 -0.635,-0.29375 -0.635,-0.64375 0,-0.3575 0.285,-0.64375 0.635,-0.64375 0.35875,0 0.6525,0.28625 0.6525,0.64375 0,0.35 -0.29375,0.64375 -0.6525,0.64375"
         id="path9596"
         style="fill:#ffffff;fill-opacity:1;fill-rule:nonzero;stroke:none" />
      <path
         d="m 836.57499,177.81794 c -0.81,0 -1.25125,-0.55125 -1.25125,-1.42625 l 0,-2.70375 -0.44125,0 0,-0.8925 0.44125,0 0,-1.07625 1.19625,-0.37625 0,1.4525 0.6525,0 0,0.8925 -0.6525,0 0,2.57625 c 0,0.45875 0.15625,0.61625 0.405,0.61625 0.11,0 0.18375,-0.0288 0.2475,-0.0462 l 0,0.855 c -0.0738,0.055 -0.32125,0.12875 -0.5975,0.12875"
         id="path9600"
         style="fill:#ffffff;fill-opacity:1;fill-rule:nonzero;stroke:none" />
      <path
         d="m 839.54574,173.56831 c -0.44125,0 -0.7275,0.6075 -0.7175,1.48125 l 1.3425,-0.16625 c 0,-0.83625 -0.18375,-1.315 -0.625,-1.315 m -0.64375,2.25375 c 0.0738,0.7175 0.38625,1.07625 0.975,1.07625 0.505,0 0.84625,-0.1375 1.03875,-0.2575 l 0.2675,0.8375 c -0.31375,0.22 -0.80125,0.3675 -1.4625,0.3675 -1.3075,0 -2.00625,-0.96625 -2.00625,-2.585 0,-1.49 0.68125,-2.55625 1.85875,-2.55625 1.25125,0 1.8575,1.06625 1.76625,2.81375 l -2.4375,0.30375 z"
         id="path9604"
         style="fill:#ffffff;fill-opacity:1;fill-rule:nonzero;stroke:none" />
      <path
         d="m 843.62024,177.81794 c -0.81,0 -1.25125,-0.55125 -1.25125,-1.42625 l 0,-2.70375 -0.44125,0 0,-0.8925 0.44125,0 0,-1.07625 1.19625,-0.37625 0,1.4525 0.6525,0 0,0.8925 -0.6525,0 0,2.57625 c 0,0.45875 0.15625,0.61625 0.40375,0.61625 0.11125,0 0.185,-0.0288 0.24875,-0.0462 l 0,0.855 c -0.0738,0.055 -0.32125,0.12875 -0.5975,0.12875"
         id="path9608"
         style="fill:#ffffff;fill-opacity:1;fill-rule:nonzero;stroke:none" />
      <path
         d="m 846.36136,177.81794 c -0.81,0 -1.25125,-0.55125 -1.25125,-1.42625 l 0,-2.70375 -0.44125,0 0,-0.8925 0.44125,0 0,-1.07625 1.19625,-0.37625 0,1.4525 0.6525,0 0,0.8925 -0.6525,0 0,2.57625 c 0,0.45875 0.15625,0.61625 0.40375,0.61625 0.11125,0 0.185,-0.0288 0.24875,-0.0462 l 0,0.855 c -0.0737,0.055 -0.32125,0.12875 -0.5975,0.12875"
         id="path9612"
         style="fill:#ffffff;fill-opacity:1;fill-rule:nonzero;stroke:none" />
      <path
         d="m 849.44261,177.84556 c -1.10375,0 -1.73875,-0.4775 -1.73875,-1.72 l 0,-3.33 1.19625,0 0,3.46875 c 0,0.395 0.19375,0.64375 0.58,0.64375 0.18375,0 0.34875,-0.0463 0.47875,-0.12 l 0,-3.9925 1.205,0 0,4.66375 c -0.36,0.23 -0.94,0.38625 -1.72125,0.38625"
         id="path9616"
         style="fill:#ffffff;fill-opacity:1;fill-rule:nonzero;stroke:none" />
      <path
         d="m 854.15224,173.68831 c -0.27625,-0.13875 -0.58875,-0.12875 -0.81875,-0.0188 l 0,4.08375 -1.1875,0 0,-4.68125 c 0.4525,-0.2675 1.08625,-0.41375 2.22625,-0.35875 l -0.22,0.975 z"
         id="path9620"
         style="fill:#ffffff;fill-opacity:1;fill-rule:nonzero;stroke:none" />
      <path
         d="m 856.79986,175.16931 c -0.76375,0.10125 -1.14125,0.35875 -1.14125,1.07625 0,0.505 0.2475,0.79125 0.7175,0.79125 0.165,0 0.33125,-0.0463 0.42375,-0.0825 l 0,-1.785 z m -0.47875,2.67625 c -1.1875,0 -1.785,-0.57 -1.785,-1.55375 0,-1.27 0.93875,-1.665 2.26375,-1.84 l 0,-0.16625 c 0,-0.46875 -0.27625,-0.69 -0.70875,-0.69 -0.41375,0 -0.78125,0.12 -1.04875,0.25875 l -0.24875,-0.7825 c 0.285,-0.15625 0.7825,-0.3675 1.5275,-0.3675 0.92875,0 1.62875,0.45875 1.62875,1.82125 l 0,2.9525 c -0.36,0.23 -0.85625,0.3675 -1.62875,0.3675"
         id="path9624"
         style="fill:#ffffff;fill-opacity:1;fill-rule:nonzero;stroke:none" />
      <path
         d="m 819.75224,164.11556 c -0.0838,-0.3775 -0.15625,-0.81875 -0.15625,-0.81875 l -0.0188,0 c 0,0 -0.0737,0.4225 -0.16625,0.81875 l -0.43125,1.8125 1.18625,0 -0.41375,-1.8125 z m 0.92,4.00125 -0.33125,-1.3425 -1.555,0 -0.33125,1.3425 -1.095,0 1.74875,-6.32875 1.13125,0 1.72,6.32875 -1.2875,0 z"
         id="path9628"
         style="fill:#ffffff;fill-opacity:1;fill-rule:nonzero;stroke:none" />
      <path
         d="m 824.49849,164.05143 c -0.27625,-0.13875 -0.58875,-0.12875 -0.81875,-0.0188 l 0,4.08375 -1.18625,0 0,-4.68125 c 0.45,-0.2675 1.085,-0.41375 2.22625,-0.35875 l -0.22125,0.975 z"
         id="path9632"
         style="fill:#ffffff;fill-opacity:1;fill-rule:nonzero;stroke:none" />
      <path
         d="m 826.77049,168.18106 c -0.81,0 -1.25125,-0.55125 -1.25125,-1.42625 l 0,-2.70375 -0.44125,0 0,-0.8925 0.44125,0 0,-1.07625 1.19625,-0.37625 0,1.4525 0.6525,0 0,0.8925 -0.6525,0 0,2.57625 c 0,0.45875 0.15625,0.61625 0.40375,0.61625 0.11125,0 0.185,-0.0288 0.24875,-0.0463 l 0,0.855 c -0.0738,0.055 -0.32125,0.12875 -0.5975,0.12875"
         id="path9636"
         style="fill:#ffffff;fill-opacity:1;fill-rule:nonzero;stroke:none" />
      <path
         d="m 829.74137,163.93143 c -0.4425,0 -0.7275,0.6075 -0.7175,1.48125 l 1.3425,-0.16625 c 0,-0.83625 -0.18375,-1.315 -0.625,-1.315 m -0.64375,2.25375 c 0.0725,0.7175 0.38625,1.07625 0.975,1.07625 0.505,0 0.845,-0.1375 1.03875,-0.2575 l 0.26625,0.8375 c -0.3125,0.22 -0.8,0.3675 -1.46125,0.3675 -1.3075,0 -2.00625,-0.96625 -2.00625,-2.585 0,-1.49 0.68125,-2.55625 1.85875,-2.55625 1.25125,0 1.8575,1.06625 1.76625,2.81375 l -2.4375,0.30375 z"
         id="path9640"
         style="fill:#ffffff;fill-opacity:1;fill-rule:nonzero;stroke:none" />
    </g>
  </g>
</svg>
