<?xml version="1.0" ?>
<!-- Uploaded to: SVG Repo, www.svgrepo.com, Generator: SVG Repo Mixer Tools -->
<svg width="800px" height="800px" viewBox="0 0 24 24" id="SVGRoot" version="1.1" xmlns="http://www.w3.org/2000/svg" xmlns:cc="http://creativecommons.org/ns#" xmlns:dc="http://purl.org/dc/elements/1.1/" xmlns:inkscape="http://www.inkscape.org/namespaces/inkscape" xmlns:rdf="http://www.w3.org/1999/02/22-rdf-syntax-ns#" xmlns:sodipodi="http://sodipodi.sourceforge.net/DTD/sodipodi-0.dtd" xmlns:svg="http://www.w3.org/2000/svg">
<defs id="defs2"/>
<g id="layer1">
<path d="M 2,12 C 2,6.489 6.489,2 12,2 17.511,2 22,6.489 22,12 22,17.511 17.511,22 12,22 6.489,22 2,17.511 2,12 Z m 2,0 c 0,4.43012 3.56988,8 8,8 4.43012,0 8,-3.56988 8,-8 C 20,7.56988 16.43012,4 12,4 7.56988,4 4,7.56988 4,12 Z M 8,11.0293 A 1,1 0 0 1 8.29297,10.29297 L 11.27344,7.3125 11.29294,7.293 a 1.0001,1.0001 0 0 1 0.01,-0.01 1,1 0 0 1 0.0527,-0.0469 1,1 0 0 1 0.0664,-0.0508 1,1 0 0 1 0.0605,-0.0391 1.0001,1.0001 0 0 1 0.0273,-0.0176 1,1 0 0 1 0.0566,-0.0293 1,1 0 0 1 0.0723,-0.0312 1.0001,1.0001 0 0 1 0.0117,-0.004 1,1 0 0 1 0.0645,-0.0234 1.0001,1.0001 0 0 1 0.0352,-0.008 1,1 0 0 1 0.041,-0.01 1.0001,1.0001 0 0 1 0.0371,-0.008 1,1 0 0 1 0.043,-0.008 1.0001,1.0001 0 0 1 0.0723,-0.006 1.0001,1.0001 0 0 1 0.0449,-0.002 1,1 0 0 1 0.0117,0 1,1 0 0 1 0.0293,0.002 1.0001,1.0001 0 0 1 0.0371,0.002 1,1 0 0 1 0.0508,0.004 1.0001,1.0001 0 0 1 0.0293,0.004 1,1 0 0 1 0.0762,0.0137 1,1 0 0 1 0.0586,0.0156 1.0001,1.0001 0 0 1 0.043,0.0137 1,1 0 0 1 0.0137,0.004 1.0001,1.0001 0 0 1 0.0703,0.0293 1.0001,1.0001 0 0 1 0.0664,0.0332 1,1 0 0 1 0.0273,0.0137 1.0001,1.0001 0 0 1 0.0449,0.0293 1,1 0 0 1 0.0215,0.0137 1.0001,1.0001 0 0 1 0.0332,0.0234 1,1 0 0 1 0.0215,0.0176 1.0001,1.0001 0 0 1 0.0547,0.0469 1,1 0 0 1 0.0215,0.0195 1.0001,1.0001 0 0 1 0.008,0.008 1,1 0 0 1 0.0391,0.041 l 2.96094,2.95898 a 1,1 0 0 1 0,1.41406 1,1 0 0 1 -1.41407,0 L 13,10.41406 V 16 a 1,1 0 0 1 -1,1 1,1 0 0 1 -1,-1 v -5.58594 l -1.29297,1.29297 a 1,1 0 0 1 -1.41406,0 A 1,1 0 0 1 8,11.0293 Z" id="path2488" style="color:#000000;font-style:normal;font-variant:normal;font-weight:normal;font-stretch:normal;font-size:medium;line-height:normal;font-family:sans-serif;font-variant-ligatures:normal;font-variant-position:normal;font-variant-caps:normal;font-variant-numeric:normal;font-variant-alternates:normal;font-variant-east-asian:normal;font-feature-settings:normal;font-variation-settings:normal;text-indent:0;text-align:start;text-decoration:none;text-decoration-line:none;text-decoration-style:solid;text-decoration-color:#000000;letter-spacing:normal;word-spacing:normal;text-transform:none;writing-mode:lr-tb;direction:ltr;text-orientation:mixed;dominant-baseline:auto;baseline-shift:baseline;text-anchor:start;white-space:normal;shape-padding:0;shape-margin:0;inline-size:0;clip-rule:nonzero;display:inline;overflow:visible;visibility:visible;opacity:1;isolation:auto;mix-blend-mode:normal;color-interpolation:sRGB;color-interpolation-filters:linearRGB;solid-color:#000000;solid-opacity:1;vector-effect:none;fill:#000000;fill-opacity:1;fill-rule:nonzero;stroke:none;stroke-width:2;stroke-linecap:round;stroke-linejoin:miter;stroke-miterlimit:4;stroke-dasharray:none;stroke-dashoffset:0;stroke-opacity:1;color-rendering:auto;image-rendering:auto;shape-rendering:auto;text-rendering:auto;enable-background:accumulate;stop-color:#000000;stop-opacity:1"/>
</g>
</svg>